<svg height="100%" width="100%" id="svg" viewBox="0 0 1440 500" xmlns="http://www.w3.org/2000/svg" class="transition duration-300 ease-in-out delay-150">
    <defs>
        <linearGradient id="gradient">
            <stop offset="5%" stop-color="#002bdc88"></stop>
            <stop offset="95%" stop-color="#32ded488"></stop>
        </linearGradient>
    </defs>
    <path d="M 0,500 C 0,500 0,166 0,166 C 174.40000000000003,135.33333333333334 348.80000000000007,104.66666666666667 523,112 C 697.1999999999999,119.33333333333333 871.2,164.66666666666666 1024,180 C 1176.8,195.33333333333334 1308.4,180.66666666666669 1440,166 C 1440,166 1440,500 1440,500 Z" stroke="none" stroke-width="0" fill="url(#gradient)" class="transition-all duration-300 ease-in-out delay-150"></path>
    <defs>
        <linearGradient id="gradient">
            <stop offset="5%" stop-color="#002bdcff"></stop>
            <stop offset="95%" stop-color="#32ded4ff"></stop>
        </linearGradient>
    </defs>
    <path d="M 0,500 C 0,500 0,333 0,333 C 117.19999999999999,364.06666666666666 234.39999999999998,395.1333333333333 413,382 C 591.6,368.8666666666667 831.5999999999999,311.53333333333336 1013,296 C 1194.4,280.46666666666664 1317.2,306.73333333333335 1440,333 C 1440,333 1440,500 1440,500 Z" stroke="none" stroke-width="0" fill="url(#gradient)" class="transition-all duration-300 ease-in-out delay-150"></path>
</svg>